<?xml version="1.0" standalone="no"?>
<!DOCTYPE svg PUBLIC "-//W3C//DTD SVG 20010904//EN"
 "http://www.w3.org/TR/2001/REC-SVG-20010904/DTD/svg10.dtd">
<svg version="1.0" xmlns="http://www.w3.org/2000/svg"
 width="1088.000000pt" height="1280.000000pt" viewBox="0 0 1088.000000 1280.000000"
 preserveAspectRatio="xMidYMid meet">
<g transform="translate(0.000000,1280.000000) scale(0.100000,-0.100000)"
fill="#000000" stroke="none">
<path d="M5386 12707 c-231 -387 -542 -770 -1021 -1256 -327 -332 -529 -522
-1165 -1100 -300 -272 -639 -583 -755 -690 -824 -764 -1329 -1317 -1718 -1879
-388 -560 -615 -1097 -698 -1652 -30 -199 -33 -535 -7 -700 78 -481 301 -914
654 -1266 1014 -1009 2759 -1091 3884 -181 103 83 286 264 366 361 l41 50 -33
-230 c-242 -1660 -713 -2902 -1350 -3563 -320 -332 -665 -519 -1075 -580 -123
-19 -97 -19 2921 -19 1675 0 3014 4 2976 9 -1051 122 -1817 1146 -2276 3044
-47 196 -128 593 -165 810 -28 168 -85 558 -82 562 1 1 34 -37 72 -83 211
-258 542 -521 852 -678 1102 -554 2502 -363 3351 458 382 369 606 781 694
1276 32 182 32 511 -1 730 -83 555 -310 1092 -698 1652 -391 565 -894 1115
-1723 1884 -113 104 -450 413 -750 685 -638 580 -839 769 -1165 1100 -479 486
-790 869 -1021 1256 -27 46 -51 83 -54 83 -3 0 -27 -37 -54 -83z"/>
</g>
</svg>
