<?xml version="1.0" standalone="no"?><!DOCTYPE svg PUBLIC "-//W3C//DTD SVG 1.1//EN" "http://www.w3.org/Graphics/SVG/1.1/DTD/svg11.dtd"><svg class="icon" height="512" viewBox="0 0 1024 1024" version="1.1" xmlns="http://www.w3.org/2000/svg"><path d="M799.473317 959.410959l-31.972179 0L223.877907 959.410959c-35.320437 0-63.957661-28.591175-63.957661-63.85533L159.920246 129.245619c0-35.269271 28.636201-63.85533 63.957661-63.85533l351.751273 0 63.957661 0 223.844138 223.505423 0 63.85533 0 542.80561C863.430978 930.819784 834.800917 959.410959 799.473317 959.410959zM799.473317 352.751043 639.58684 352.751043c-35.320437 0-63.957661-28.585035-63.957661-63.85533L575.629179 129.245619 287.828404 129.245619c-35.320437 0-63.950498 28.598338-63.950498 63.86147l0 638.594233c0 35.263132 28.630061 63.85533 63.950498 63.85533l447.694415 0c35.320437 0 63.950498-28.591175 63.950498-63.85533L799.473317 352.751043zM703.544501 831.701323 319.813886 831.701323c-17.663288 0-31.985482-14.301727-31.985482-31.934317 0-17.631566 14.32117-31.927153 31.985482-31.927153l383.730615 0c17.657148 0 31.978319 14.295588 31.978319 31.927153C735.52282 817.398572 721.201649 831.701323 703.544501 831.701323zM703.544501 703.978383 319.813886 703.978383c-17.663288 0-31.985482-14.295588-31.985482-31.927153s14.32117-31.934317 31.985482-31.934317l383.730615 0c17.657148 0 31.978319 14.301727 31.978319 31.934317S721.201649 703.978383 703.544501 703.978383zM703.544501 576.262606 319.813886 576.262606c-17.663288 0-31.985482-14.295588-31.985482-31.927153 0-17.637706 14.32117-31.934317 31.985482-31.934317l383.730615 0c17.657148 0 31.978319 14.295588 31.978319 31.934317C735.52282 561.965995 721.201649 576.262606 703.544501 576.262606zM479.700363 448.545806 319.813886 448.545806c-17.663288 0-31.985482-14.301727-31.985482-31.934317 0-17.631566 14.32117-31.934317 31.985482-31.934317l159.886477 0c17.657148 0 31.978319 14.301727 31.978319 31.934317C511.678682 434.244079 497.357512 448.545806 479.700363 448.545806z" /></svg>