<?xml version="1.0" encoding="UTF-8" standalone="no"?>
<!-- Created with Inkscape (http://www.inkscape.org/) -->

<svg
   xmlns:dc="http://purl.org/dc/elements/1.1/"
   xmlns:cc="http://creativecommons.org/ns#"
   xmlns:rdf="http://www.w3.org/1999/02/22-rdf-syntax-ns#"
   xmlns:svg="http://www.w3.org/2000/svg"
   xmlns="http://www.w3.org/2000/svg"
   xmlns:sodipodi="http://sodipodi.sourceforge.net/DTD/sodipodi-0.dtd"
   xmlns:inkscape="http://www.inkscape.org/namespaces/inkscape"
   width="148"
   height="175"
   viewBox="0 0 148 175"
   id="svg2"
   version="1.1"
   inkscape:version="0.91 r13725"
   sodipodi:docname="card heart.svg">
  <defs
     id="defs4" />
  <sodipodi:namedview
     id="base"
     pagecolor="#ffffff"
     bordercolor="#666666"
     borderopacity="1.0"
     inkscape:pageopacity="0.0"
     inkscape:pageshadow="2"
     inkscape:zoom="3.404"
     inkscape:cx="189.40648"
     inkscape:cy="125"
     inkscape:document-units="px"
     inkscape:current-layer="layer1"
     showgrid="false"
     units="px"
     inkscape:window-width="1920"
     inkscape:window-height="1018"
     inkscape:window-x="1272"
     inkscape:window-y="-8"
     inkscape:window-maximized="1" />
  <metadata
     id="metadata7">
    <rdf:RDF>
      <cc:Work
         rdf:about="">
        <dc:format>image/svg+xml</dc:format>
        <dc:type
           rdf:resource="http://purl.org/dc/dcmitype/StillImage" />
        <dc:title></dc:title>
      </cc:Work>
    </rdf:RDF>
  </metadata>
  <g
     inkscape:label="Layer 1"
     inkscape:groupmode="layer"
     id="layer1"
     transform="translate(0,-877.36216)">
    <path
       style="fill:#ff0000;fill-opacity:1;stroke:none"
       d="M 72.527478,1027.3356 C 67.735381,1012.5493 60.313567,1000.5864 34.362543,965.81962 18.536177,944.6169 12.638368,934.36254 10.707991,924.69211 c -2.34401,-11.74257 1.196833,-22.934 9.664894,-30.54751 5.693913,-5.11932 11.608399,-7.31434 19.708529,-7.31434 13.35413,0 24.173768,7.64475 30.646178,21.65344 1.853077,4.01074 3.699135,6.9191 4.10235,6.46303 0.403216,-0.45608 1.467487,-2.76806 2.365047,-5.13774 3.890151,-10.27052 12.753803,-19.15322 21.999836,-22.0471 6.268975,-1.96211 17.496565,-0.79433 23.434335,2.43742 16.5279,8.9956 20.13184,28.66056 9.23263,50.37797 -4.28341,8.53497 -8.26314,14.35165 -21.47246,31.38367 -18.465777,23.80963 -29.595326,41.93515 -34.001621,55.37465 -0.906412,2.7646 -1.779228,5.0266 -1.939592,5.0266 -0.160363,0 -1.024651,-2.262 -1.920639,-5.0266 z"
       id="path5865"
       inkscape:connector-curvature="0" />
  </g>
</svg>
